# xmcd
#
# Track frame offsets:
#	150
#	10522
#	20633
#	30292
#	41049
#	45520
#	57884
#	69303
#	78225
#	90152
#	94313
#	106117
#	115631
#	126028
#	137374
#
# Disc length: 1886 seconds
#
# Revision: 1
# Processed by: cddbd v1.5.1PL2 Copyright (c) Steve Scherf et al.
# Submitted via: audiograbber 1.83.01
#
DISCID=a3075c0f
DTITLE=Compilation Albums - Now Playing, Cracker Barrel Old Country Store
DYEAR=2004
DGENRE=Country
TTITLE0=Everly Brothers - Bye Bye Love
TTITLE1=Jerry Lee Lewis - It'll Be Me
TTITLE2=Patsy Cline - Waling Dream
TTITLE3=Tennessee Ernie Ford - Country Junction
TTITLE4=Unknown - Snap, Crackle N Pop
TTITLE5=Hank Williams - Move It On Over
TTITLE6=Kitty Wells - It Wasn't God Who Made Honky Tonk Angels
TTITLE7=Roy Orbison - Claudette
TTITLE8=Mark Chesnutt - What a Way to Live
TTITLE9=Unknown - Mr. Clean
TTITLE10=Mavericks - Hey Good Lookin'
TTITLE11=Marty Stewart - Don't Be Cruel
TTITLE12=Loretta Lynn - You're Lookin' at Country
TTITLE13=Johnny Cash - Get Rhythm
TTITLE14=Unknown - It's Slinky
EXTD=
EXTT0=
EXTT1=
EXTT2=
EXTT3=
EXTT4=
EXTT5=
EXTT6=
EXTT7=
EXTT8=
EXTT9=
EXTT10=
EXTT11=
EXTT12=
EXTT13=
EXTT14=
PLAYORDER=
